<mxfile host="app.diagrams.net" modified="2021-12-01T12:55:10.949Z" agent="5.0 (Windows NT 10.0; Win64; x64) AppleWebKit/537.36 (KHTML, like Gecko) Chrome/94.0.4606.81 Safari/537.36" etag="V044Ld8aSypKLHRkemrF" version="15.7.3" type="github">
  <diagram id="_mAiWblu6isl-GDY3ZUG" name="Page-1">
    <mxGraphModel dx="1422" dy="706" grid="1" gridSize="10" guides="1" tooltips="1" connect="1" arrows="1" fold="1" page="1" pageScale="1" pageWidth="827" pageHeight="1169" math="0" shadow="0">
      <root>
        <mxCell id="0" />
        <mxCell id="1" parent="0" />
        <mxCell id="7NKa_bNzmtklbajX-zHw-9" style="edgeStyle=orthogonalEdgeStyle;rounded=0;orthogonalLoop=1;jettySize=auto;html=1;entryX=0.5;entryY=0;entryDx=0;entryDy=0;endArrow=block;endFill=0;" edge="1" parent="1" source="7NKa_bNzmtklbajX-zHw-1" target="7NKa_bNzmtklbajX-zHw-5">
          <mxGeometry relative="1" as="geometry" />
        </mxCell>
        <mxCell id="7NKa_bNzmtklbajX-zHw-19" style="edgeStyle=orthogonalEdgeStyle;rounded=0;orthogonalLoop=1;jettySize=auto;html=1;endArrow=block;endFill=0;dashed=1;" edge="1" parent="1" source="7NKa_bNzmtklbajX-zHw-1" target="7NKa_bNzmtklbajX-zHw-16">
          <mxGeometry relative="1" as="geometry" />
        </mxCell>
        <mxCell id="7NKa_bNzmtklbajX-zHw-1" value="ValueTypeInfo" style="swimlane;fontStyle=1;align=center;verticalAlign=top;childLayout=stackLayout;horizontal=1;startSize=26;horizontalStack=0;resizeParent=1;resizeParentMax=0;resizeLast=0;collapsible=1;marginBottom=0;" vertex="1" parent="1">
          <mxGeometry x="80" y="40" width="280" height="120" as="geometry" />
        </mxCell>
        <mxCell id="7NKa_bNzmtklbajX-zHw-2" value="- final Class&lt;T&gt; type" style="text;strokeColor=none;fillColor=none;align=left;verticalAlign=top;spacingLeft=4;spacingRight=4;overflow=hidden;rotatable=0;points=[[0,0.5],[1,0.5]];portConstraint=eastwest;" vertex="1" parent="7NKa_bNzmtklbajX-zHw-1">
          <mxGeometry y="26" width="280" height="26" as="geometry" />
        </mxCell>
        <mxCell id="7NKa_bNzmtklbajX-zHw-3" value="" style="line;strokeWidth=1;fillColor=none;align=left;verticalAlign=middle;spacingTop=-1;spacingLeft=3;spacingRight=3;rotatable=0;labelPosition=right;points=[];portConstraint=eastwest;" vertex="1" parent="7NKa_bNzmtklbajX-zHw-1">
          <mxGeometry y="52" width="280" height="8" as="geometry" />
        </mxCell>
        <mxCell id="7NKa_bNzmtklbajX-zHw-4" value="+ ValueTypeInfo(Class&lt;T&gt; type)&#xa;+ Class&lt;T&gt; getTypeClass()&#xa;" style="text;strokeColor=none;fillColor=none;align=left;verticalAlign=top;spacingLeft=4;spacingRight=4;overflow=hidden;rotatable=0;points=[[0,0.5],[1,0.5]];portConstraint=eastwest;" vertex="1" parent="7NKa_bNzmtklbajX-zHw-1">
          <mxGeometry y="60" width="280" height="60" as="geometry" />
        </mxCell>
        <mxCell id="7NKa_bNzmtklbajX-zHw-14" style="edgeStyle=orthogonalEdgeStyle;rounded=0;orthogonalLoop=1;jettySize=auto;html=1;endArrow=block;endFill=0;" edge="1" parent="1" source="7NKa_bNzmtklbajX-zHw-5" target="7NKa_bNzmtklbajX-zHw-10">
          <mxGeometry relative="1" as="geometry" />
        </mxCell>
        <mxCell id="7NKa_bNzmtklbajX-zHw-5" value="TypeInformation" style="swimlane;fontStyle=1;align=center;verticalAlign=top;childLayout=stackLayout;horizontal=1;startSize=26;horizontalStack=0;resizeParent=1;resizeParentMax=0;resizeLast=0;collapsible=1;marginBottom=0;" vertex="1" parent="1">
          <mxGeometry x="80" y="240" width="280" height="120" as="geometry" />
        </mxCell>
        <mxCell id="7NKa_bNzmtklbajX-zHw-6" value="+ " style="text;strokeColor=none;fillColor=none;align=left;verticalAlign=top;spacingLeft=4;spacingRight=4;overflow=hidden;rotatable=0;points=[[0,0.5],[1,0.5]];portConstraint=eastwest;" vertex="1" parent="7NKa_bNzmtklbajX-zHw-5">
          <mxGeometry y="26" width="280" height="26" as="geometry" />
        </mxCell>
        <mxCell id="7NKa_bNzmtklbajX-zHw-7" value="" style="line;strokeWidth=1;fillColor=none;align=left;verticalAlign=middle;spacingTop=-1;spacingLeft=3;spacingRight=3;rotatable=0;labelPosition=right;points=[];portConstraint=eastwest;" vertex="1" parent="7NKa_bNzmtklbajX-zHw-5">
          <mxGeometry y="52" width="280" height="8" as="geometry" />
        </mxCell>
        <mxCell id="7NKa_bNzmtklbajX-zHw-8" value="+ abstract Class&lt;T&gt; getTypeClass();&#xa;+ abstract boolean isBasicType()&#xa;abstract boolean canEqual(Object obj)" style="text;strokeColor=none;fillColor=none;align=left;verticalAlign=top;spacingLeft=4;spacingRight=4;overflow=hidden;rotatable=0;points=[[0,0.5],[1,0.5]];portConstraint=eastwest;" vertex="1" parent="7NKa_bNzmtklbajX-zHw-5">
          <mxGeometry y="60" width="280" height="60" as="geometry" />
        </mxCell>
        <mxCell id="7NKa_bNzmtklbajX-zHw-10" value="Serializable" style="swimlane;fontStyle=1;align=center;verticalAlign=top;childLayout=stackLayout;horizontal=1;startSize=26;horizontalStack=0;resizeParent=1;resizeParentMax=0;resizeLast=0;collapsible=1;marginBottom=0;" vertex="1" parent="1">
          <mxGeometry x="80" y="400" width="280" height="34" as="geometry" />
        </mxCell>
        <mxCell id="7NKa_bNzmtklbajX-zHw-12" value="" style="line;strokeWidth=1;fillColor=none;align=left;verticalAlign=middle;spacingTop=-1;spacingLeft=3;spacingRight=3;rotatable=0;labelPosition=right;points=[];portConstraint=eastwest;" vertex="1" parent="7NKa_bNzmtklbajX-zHw-10">
          <mxGeometry y="26" width="280" height="8" as="geometry" />
        </mxCell>
        <mxCell id="7NKa_bNzmtklbajX-zHw-15" value="AtomicType" style="swimlane;fontStyle=1;align=center;verticalAlign=top;childLayout=stackLayout;horizontal=1;startSize=26;horizontalStack=0;resizeParent=1;resizeParentMax=0;resizeLast=0;collapsible=1;marginBottom=0;" vertex="1" parent="1">
          <mxGeometry x="419" y="61" width="280" height="86" as="geometry" />
        </mxCell>
        <mxCell id="7NKa_bNzmtklbajX-zHw-16" value="+ " style="text;strokeColor=none;fillColor=none;align=left;verticalAlign=top;spacingLeft=4;spacingRight=4;overflow=hidden;rotatable=0;points=[[0,0.5],[1,0.5]];portConstraint=eastwest;" vertex="1" parent="7NKa_bNzmtklbajX-zHw-15">
          <mxGeometry y="26" width="280" height="26" as="geometry" />
        </mxCell>
        <mxCell id="7NKa_bNzmtklbajX-zHw-17" value="" style="line;strokeWidth=1;fillColor=none;align=left;verticalAlign=middle;spacingTop=-1;spacingLeft=3;spacingRight=3;rotatable=0;labelPosition=right;points=[];portConstraint=eastwest;" vertex="1" parent="7NKa_bNzmtklbajX-zHw-15">
          <mxGeometry y="52" width="280" height="8" as="geometry" />
        </mxCell>
        <mxCell id="7NKa_bNzmtklbajX-zHw-18" value="+ " style="text;strokeColor=none;fillColor=none;align=left;verticalAlign=top;spacingLeft=4;spacingRight=4;overflow=hidden;rotatable=0;points=[[0,0.5],[1,0.5]];portConstraint=eastwest;" vertex="1" parent="7NKa_bNzmtklbajX-zHw-15">
          <mxGeometry y="60" width="280" height="26" as="geometry" />
        </mxCell>
      </root>
    </mxGraphModel>
  </diagram>
</mxfile>
